<?xml version="1.0" encoding="UTF-8"?>
<svg width="108px" height="49px" viewBox="0 0 108 49" version="1.1" xmlns="http://www.w3.org/2000/svg" xmlns:xlink="http://www.w3.org/1999/xlink">
    <!-- Generator: Sketch 53.1 (72631) - https://sketchapp.com -->
    <title>Group</title>
    <desc>Created with Sketch.</desc>
    <g id="Symbols" stroke="none" stroke-width="1" fill="none" fill-rule="evenodd">
        <g id="BD-Logo-White">
            <g id="Group">
                <path d="M75.8862178,0 L64.8712871,0 L76.7887129,12.1145347 C76.8272079,12.1517822 76.8284554,12.2129109 76.7919208,12.2519406 L65.0707129,24.2454653 L76.102396,24.2454653 C76.4711287,24.2454653 76.8241782,24.0975446 77.0827723,23.8346733 L88.186099,12.1851089 L76.9567723,0.466574257 C76.6801782,0.168950495 76.2923762,0 75.8862178,0" id="Fill-1" fill="#FFFFFF"></path>
                <path d="M75.8862178,0 L64.8712871,0 L76.7887129,12.1145347 C76.8272079,12.1517822 76.8284554,12.2129109 76.7919208,12.2519406 L65.0707129,24.2454653 L76.102396,24.2454653 C76.4711287,24.2454653 76.8241782,24.0975446 77.0827723,23.8346733 L88.186099,12.1851089 L76.9567723,0.466574257 C76.6801782,0.168950495 76.2923762,0 75.8862178,0 Z" id="Stroke-3"></path>
                <path d="M70.5452079,10.5365941 L60.4630693,0.29370297 C60.2798614,0.107821782 60.0296436,0.00302970297 59.7687327,0.00285148515 L47.4059406,0 L57.5185545,10.5365941 L70.5452079,10.5365941 Z" id="Fill-5" fill="#FFFFFF"></path>
                <path d="M70.5452079,10.5365941 L60.4630693,0.29370297 C60.2798614,0.107821782 60.0296436,0.00302970297 59.7687327,0.00285148515 L47.4059406,0 L57.5185545,10.5365941 L70.5452079,10.5365941 Z" id="Stroke-7"></path>
                <path d="M70.5452079,13.7227723 L60.4630693,23.9656634 C60.2798614,24.1515446 60.0296436,24.2563366 59.7687327,24.2565149 L47.4059406,24.2593663 L57.5185545,13.7227723 L70.5452079,13.7227723 Z" id="Fill-9" fill="#FFFFFF"></path>
                <path d="M70.5452079,13.7227723 L60.4630693,23.9656634 C60.2798614,24.1515446 60.0296436,24.2563366 59.7687327,24.2565149 L47.4059406,24.2593663 L57.5185545,13.7227723 L70.5452079,13.7227723 Z" id="Stroke-11"></path>
                <path d="M4.50677228,35.3186074 L4.50677228,42.4065084 C4.50677228,42.4672806 4.52922772,42.5276965 4.56879208,42.5734985 C5.07332673,43.1601915 5.5880198,43.6025282 6.1130495,43.9019341 C6.65910891,44.2134588 7.21087129,44.3688648 7.7679802,44.3688648 C8.7729505,44.3688648 9.61716832,43.9322311 10.2999208,43.0582509 C10.982495,42.1839143 11.3243168,40.6815381 11.3243168,38.5513004 C11.3243168,36.7703697 10.9855248,35.4618945 10.308297,34.6260529 C9.63071287,33.7905678 8.81126733,33.3724687 7.84978218,33.3724687 C7.25988119,33.3724687 6.68655446,33.5255579 6.12944554,33.8313796 C5.59390099,34.1252608 5.07386139,34.5651024 4.5689703,35.1512608 C4.52940594,35.197241 4.50677228,35.2578351 4.50677228,35.3186074 M4.50677228,22.2105084 L4.50677228,31.508845 C4.50677228,31.7269836 4.76893069,31.8390826 4.92629703,31.6881321 C5.57394059,31.0668648 6.22354455,30.5876371 6.87493069,30.2506272 C7.66675248,29.8409044 8.52736634,29.6361321 9.45605941,29.6361321 C10.6467327,29.6361321 11.8049703,30.0105678 12.9304158,30.7587262 C14.0556832,31.507241 14.8909901,32.6214588 15.4375842,34.1017361 C15.9838218,35.5821915 16.2572079,37.1146866 16.2572079,38.6986866 C16.2572079,40.3594985 16.0219604,41.8943103 15.5521782,43.3038351 C15.2353069,44.2437559 14.790297,45.0548252 14.2167921,45.7373994 C13.6432871,46.4205084 12.9468119,46.9856371 12.1273663,47.4334985 C11.3079208,47.8815381 10.4228911,48.1057361 9.47245545,48.1057361 C8.6530099,48.1057361 7.8280396,47.9063103 6.99754455,47.5074588 C6.30552475,47.1750826 5.61350495,46.7042311 4.92184158,46.0949044 C4.7600198,45.9525084 4.50677228,46.0613994 4.50677228,46.2768648 L4.50677228,47.5614588 C4.50677228,47.699043 4.39520792,47.8106074 4.25780198,47.8106074 L0.248970297,47.8106074 C0.111564356,47.8106074 0,47.699043 0,47.5614588 L0,22.2240529 C0,22.1598945 4.50677228,21.9855975 4.50677228,22.2105084" id="Fill-13" fill="#FFFFFF"></path>
                <path d="M4.50677228,35.3186074 L4.50677228,42.4065084 C4.50677228,42.4672806 4.52922772,42.5276965 4.56879208,42.5734985 C5.07332673,43.1601915 5.5880198,43.6025282 6.1130495,43.9019341 C6.65910891,44.2134588 7.21087129,44.3688648 7.7679802,44.3688648 C8.7729505,44.3688648 9.61716832,43.9322311 10.2999208,43.0582509 C10.982495,42.1839143 11.3243168,40.6815381 11.3243168,38.5513004 C11.3243168,36.7703697 10.9855248,35.4618945 10.308297,34.6260529 C9.63071287,33.7905678 8.81126733,33.3724687 7.84978218,33.3724687 C7.25988119,33.3724687 6.68655446,33.5255579 6.12944554,33.8313796 C5.59390099,34.1252608 5.07386139,34.5651024 4.5689703,35.1512608 C4.52940594,35.197241 4.50677228,35.2578351 4.50677228,35.3186074 Z M4.50677228,22.2105084 L4.50677228,31.508845 C4.50677228,31.7269836 4.76893069,31.8390826 4.92629703,31.6881321 C5.57394059,31.0668648 6.22354455,30.5876371 6.87493069,30.2506272 C7.66675248,29.8409044 8.52736634,29.6361321 9.45605941,29.6361321 C10.6467327,29.6361321 11.8049703,30.0105678 12.9304158,30.7587262 C14.0556832,31.507241 14.8909901,32.6214588 15.4375842,34.1017361 C15.9838218,35.5821915 16.2572079,37.1146866 16.2572079,38.6986866 C16.2572079,40.3594985 16.0219604,41.8943103 15.5521782,43.3038351 C15.2353069,44.2437559 14.790297,45.0548252 14.2167921,45.7373994 C13.6432871,46.4205084 12.9468119,46.9856371 12.1273663,47.4334985 C11.3079208,47.8815381 10.4228911,48.1057361 9.47245545,48.1057361 C8.6530099,48.1057361 7.8280396,47.9063103 6.99754455,47.5074588 C6.30552475,47.1750826 5.61350495,46.7042311 4.92184158,46.0949044 C4.7600198,45.9525084 4.50677228,46.0613994 4.50677228,46.2768648 L4.50677228,47.5614588 C4.50677228,47.699043 4.39520792,47.8106074 4.25780198,47.8106074 L0.248970297,47.8106074 C0.111564356,47.8106074 0,47.699043 0,47.5614588 L0,22.2240529 C0,22.1598945 4.50677228,21.9855975 4.50677228,22.2105084 Z" id="Stroke-15"></path>
                <path d="M22.912396,33.46036 C22.912396,33.7086175 23.236396,33.799865 23.3711287,33.5913501 C24.2173069,32.2816274 25.0203564,31.3511521 25.7806337,30.7999244 C26.5991881,30.2061026 27.4863564,29.86036 28.4423168,29.7635878 C28.5877426,29.7489739 28.7139208,29.8685581 28.7139208,30.0146967 L28.7139208,34.3314888 L28.304198,34.3314888 C27.1899802,34.3314888 26.1408119,34.6733105 25.1575842,35.3558848 C24.1870099,36.030261 23.4450891,36.9887165 22.9323564,38.2323204 C22.9191683,38.2642214 22.912396,38.2987957 22.912396,38.3331917 L22.912396,47.6684195 C22.912396,47.8058254 22.8008317,47.9173898 22.6634257,47.9173898 L18.6055842,47.9173898 C18.468,47.9173898 18.3564356,47.8058254 18.3564356,47.6684195 L18.3564356,30.3034096 C18.3564356,30.1660036 18.468,30.0544393 18.6055842,30.0544393 L22.6634257,30.0544393 C22.8008317,30.0544393 22.912396,30.1660036 22.912396,30.3034096 L22.912396,33.46036 Z" id="Fill-17" fill="#FFFFFF"></path>
                <path d="M22.912396,33.46036 C22.912396,33.7086175 23.236396,33.799865 23.3711287,33.5913501 C24.2173069,32.2816274 25.0203564,31.3511521 25.7806337,30.7999244 C26.5991881,30.2061026 27.4863564,29.86036 28.4423168,29.7635878 C28.5877426,29.7489739 28.7139208,29.8685581 28.7139208,30.0146967 L28.7139208,34.3314888 L28.304198,34.3314888 C27.1899802,34.3314888 26.1408119,34.6733105 25.1575842,35.3558848 C24.1870099,36.030261 23.4450891,36.9887165 22.9323564,38.2323204 C22.9191683,38.2642214 22.912396,38.2987957 22.912396,38.3331917 L22.912396,47.6684195 C22.912396,47.8058254 22.8008317,47.9173898 22.6634257,47.9173898 L18.6055842,47.9173898 C18.468,47.9173898 18.3564356,47.8058254 18.3564356,47.6684195 L18.3564356,30.3034096 C18.3564356,30.1660036 18.468,30.0544393 18.6055842,30.0544393 L22.6634257,30.0544393 C22.8008317,30.0544393 22.912396,30.1660036 22.912396,30.3034096 L22.912396,33.46036 Z" id="Stroke-19"></path>
                <path d="M40.7382772,42.9162772 L40.7382772,38.8682376 C40.7382772,38.7110495 40.5917822,38.5925347 40.437802,38.6231881 C37.9890891,39.1091881 36.2974455,39.7614653 35.3628713,40.5807327 C34.6093663,41.2255248 34.2322574,41.9517624 34.2322574,42.7603366 C34.2322574,43.4158218 34.4477228,43.9568911 34.8797228,44.3828317 C35.3108317,44.8087723 35.8599208,45.0217426 36.5266337,45.0217426 C37.0946139,45.0217426 37.7310297,44.8556436 38.4360594,44.5220198 C39.1125743,44.202297 39.8471881,43.7334059 40.6397228,43.1164158 C40.7008515,43.0686535 40.7382772,42.993802 40.7382772,42.9162772 L40.7382772,42.9162772 Z M30.8229505,32.977604 C30.7154851,32.8874257 30.7019406,32.7232871 30.7953267,32.618495 C31.6452475,31.6646733 32.6487921,30.9291683 33.8061386,30.411802 C35.0404752,29.8600396 36.3628515,29.5841584 37.772198,29.5841584 C39.2360792,29.5841584 40.5254851,29.8466733 41.639703,30.3708119 C42.4482772,30.7643168 43.150099,31.4173069 43.7455248,32.3290693 C44.3407723,33.2417228 44.6387525,34.3862376 44.6387525,35.7626139 L44.6387525,44.087703 C44.6387525,44.612198 44.7043366,45.2459406 44.8353267,45.9885743 C44.9370891,46.5661782 45.0454455,47.0512871 45.1605743,47.4435446 C45.2072673,47.6026931 45.0871485,47.7588119 44.9215842,47.7588119 L41.5001584,47.7588119 C41.3885941,47.7588119 41.2887921,47.6852079 41.2574257,47.5782772 C41.1383762,47.172297 41.0389307,46.7607921 40.9594455,46.3448317 C40.9234455,46.1573465 40.706198,46.0798218 40.558099,46.200297 C39.8511089,46.7741584 39.1220198,47.2173861 38.3701188,47.5290891 C37.5018416,47.8896238 36.6030891,48.0703366 35.674396,48.0703366 C34.0572475,48.0703366 32.7272079,47.5811287 31.6839208,46.6032475 C30.6402772,45.6257228 30.1188119,44.4646337 30.1188119,43.1208713 C30.1188119,42.1814851 30.3590495,41.2911089 30.839703,40.4497426 C31.3203564,39.608198 32.0253861,38.8735842 32.953901,38.2457228 C33.8825941,37.6171485 35.0518812,37.1120792 36.4610495,36.7296238 C37.4756436,36.4574851 38.8258218,36.225802 40.5115842,36.0338614 C40.6386535,36.0192475 40.7386337,35.9087525 40.7361386,35.7809703 C40.7240198,35.1436634 40.6591485,34.6731683 40.5418812,34.3694851 C40.3449505,33.8449901 40.0009901,33.4352673 39.5091089,33.140495 C39.0174059,32.8453663 38.4112871,32.6981584 37.6900396,32.6981584 C36.0299406,32.6981584 34.623802,33.421901 33.4726931,34.8688515 C33.3850099,34.9791683 33.2253267,34.9991287 33.117505,34.9082376 L30.8229505,32.977604 Z" id="Fill-21" fill="#FFFFFF"></path>
                <path d="M40.7382772,42.9162772 L40.7382772,38.8682376 C40.7382772,38.7110495 40.5917822,38.5925347 40.437802,38.6231881 C37.9890891,39.1091881 36.2974455,39.7614653 35.3628713,40.5807327 C34.6093663,41.2255248 34.2322574,41.9517624 34.2322574,42.7603366 C34.2322574,43.4158218 34.4477228,43.9568911 34.8797228,44.3828317 C35.3108317,44.8087723 35.8599208,45.0217426 36.5266337,45.0217426 C37.0946139,45.0217426 37.7310297,44.8556436 38.4360594,44.5220198 C39.1125743,44.202297 39.8471881,43.7334059 40.6397228,43.1164158 C40.7008515,43.0686535 40.7382772,42.993802 40.7382772,42.9162772 Z M30.8229505,32.977604 C30.7154851,32.8874257 30.7019406,32.7232871 30.7953267,32.618495 C31.6452475,31.6646733 32.6487921,30.9291683 33.8061386,30.411802 C35.0404752,29.8600396 36.3628515,29.5841584 37.772198,29.5841584 C39.2360792,29.5841584 40.5254851,29.8466733 41.639703,30.3708119 C42.4482772,30.7643168 43.150099,31.4173069 43.7455248,32.3290693 C44.3407723,33.2417228 44.6387525,34.3862376 44.6387525,35.7626139 L44.6387525,44.087703 C44.6387525,44.612198 44.7043366,45.2459406 44.8353267,45.9885743 C44.9370891,46.5661782 45.0454455,47.0512871 45.1605743,47.4435446 C45.2072673,47.6026931 45.0871485,47.7588119 44.9215842,47.7588119 L41.5001584,47.7588119 C41.3885941,47.7588119 41.2887921,47.6852079 41.2574257,47.5782772 C41.1383762,47.172297 41.0389307,46.7607921 40.9594455,46.3448317 C40.9234455,46.1573465 40.706198,46.0798218 40.558099,46.200297 C39.8511089,46.7741584 39.1220198,47.2173861 38.3701188,47.5290891 C37.5018416,47.8896238 36.6030891,48.0703366 35.674396,48.0703366 C34.0572475,48.0703366 32.7272079,47.5811287 31.6839208,46.6032475 C30.6402772,45.6257228 30.1188119,44.4646337 30.1188119,43.1208713 C30.1188119,42.1814851 30.3590495,41.2911089 30.839703,40.4497426 C31.3203564,39.608198 32.0253861,38.8735842 32.953901,38.2457228 C33.8825941,37.6171485 35.0518812,37.1120792 36.4610495,36.7296238 C37.4756436,36.4574851 38.8258218,36.225802 40.5115842,36.0338614 C40.6386535,36.0192475 40.7386337,35.9087525 40.7361386,35.7809703 C40.7240198,35.1436634 40.6591485,34.6731683 40.5418812,34.3694851 C40.3449505,33.8449901 40.0009901,33.4352673 39.5091089,33.140495 C39.0174059,32.8453663 38.4112871,32.6981584 37.6900396,32.6981584 C36.0299406,32.6981584 34.623802,33.421901 33.4726931,34.8688515 C33.3850099,34.9791683 33.2253267,34.9991287 33.117505,34.9082376 L30.8229505,32.977604 Z" id="Stroke-23"></path>
                <path d="M47.6549109,29.9405941 L51.6471683,29.9405941 C51.7847525,29.9405941 51.8963168,30.0521584 51.8963168,30.1895644 L51.8963168,47.5545743 C51.8963168,47.6919802 51.7847525,47.8035446 51.6471683,47.8035446 L47.6549109,47.8035446 C47.5173267,47.8035446 47.4059406,47.6919802 47.4059406,47.5545743 L47.4059406,30.1895644 C47.4059406,30.0521584 47.5173267,29.9405941 47.6549109,29.9405941" id="Fill-25" fill="#FFFFFF"></path>
                <path d="M47.6549109,29.9405941 L51.6471683,29.9405941 C51.7847525,29.9405941 51.8963168,30.0521584 51.8963168,30.1895644 L51.8963168,47.5545743 C51.8963168,47.6919802 51.7847525,47.8035446 51.6471683,47.8035446 L47.6549109,47.8035446 C47.5173267,47.8035446 47.4059406,47.6919802 47.4059406,47.5545743 L47.4059406,30.1895644 C47.4059406,30.0521584 47.5173267,29.9405941 47.6549109,29.9405941 Z" id="Stroke-27"></path>
                <path d="M59.4142574,31.771604 C59.4142574,31.983505 59.6650099,32.1016634 59.8243366,31.9614059 C60.6345149,31.248 61.4646535,30.6907129 62.3147525,30.2890099 C63.3090297,29.8192277 64.4073861,29.5841584 65.6092871,29.5841584 C66.9635644,29.5841584 67.9362772,29.911901 68.526,30.5673861 C69.3128317,31.4411881 69.7061584,32.6377426 69.7061584,34.1565149 L69.7061584,47.5096634 C69.7061584,47.6470693 69.5945941,47.7586337 69.4573663,47.7586337 L65.4647525,47.7586337 C65.3275248,47.7586337 65.2159604,47.6470693 65.2159604,47.5096634 L65.2159604,35.303703 C65.2159604,34.5715842 65.0735644,34.0497624 64.7896634,33.7387723 C64.5054059,33.4272475 64.1013861,33.2714851 63.5767129,33.2714851 C63.019604,33.2714851 62.4298812,33.4272475 61.8070099,33.7387723 C61.2021386,34.0406733 60.4325941,34.6193465 59.4980198,35.4728317 C59.4459802,35.5202376 59.4142574,35.5895644 59.4142574,35.6597822 L59.4142574,47.5096634 C59.4142574,47.6470693 59.3026931,47.7586337 59.1654653,47.7586337 L55.1404158,47.7586337 C55.0026535,47.7586337 54.8910891,47.6470693 54.8910891,47.5096634 L54.8910891,30.1446535 C54.8910891,30.0072475 55.0026535,29.8956832 55.1404158,29.8956832 L59.1654653,29.8956832 C59.3026931,29.8956832 59.4142574,30.0072475 59.4142574,30.1446535 L59.4142574,31.771604 Z" id="Fill-29" fill="#FFFFFF"></path>
                <path d="M59.4142574,31.771604 C59.4142574,31.983505 59.6650099,32.1016634 59.8243366,31.9614059 C60.6345149,31.248 61.4646535,30.6907129 62.3147525,30.2890099 C63.3090297,29.8192277 64.4073861,29.5841584 65.6092871,29.5841584 C66.9635644,29.5841584 67.9362772,29.911901 68.526,30.5673861 C69.3128317,31.4411881 69.7061584,32.6377426 69.7061584,34.1565149 L69.7061584,47.5096634 C69.7061584,47.6470693 69.5945941,47.7586337 69.4573663,47.7586337 L65.4647525,47.7586337 C65.3275248,47.7586337 65.2159604,47.6470693 65.2159604,47.5096634 L65.2159604,35.303703 C65.2159604,34.5715842 65.0735644,34.0497624 64.7896634,33.7387723 C64.5054059,33.4272475 64.1013861,33.2714851 63.5767129,33.2714851 C63.019604,33.2714851 62.4298812,33.4272475 61.8070099,33.7387723 C61.2021386,34.0406733 60.4325941,34.6193465 59.4980198,35.4728317 C59.4459802,35.5202376 59.4142574,35.5895644 59.4142574,35.6597822 L59.4142574,47.5096634 C59.4142574,47.6470693 59.3026931,47.7586337 59.1654653,47.7586337 L55.1404158,47.7586337 C55.0026535,47.7586337 54.8910891,47.6470693 54.8910891,47.5096634 L54.8910891,30.1446535 C54.8910891,30.0072475 55.0026535,29.8956832 55.1404158,29.8956832 L59.1654653,29.8956832 C59.3026931,29.8956832 59.4142574,30.0072475 59.4142574,30.1446535 L59.4142574,31.771604 Z" id="Stroke-31"></path>
                <path d="M85.0938416,42.6856728 L85.0938416,35.3783857 C85.0938416,35.3138708 85.0683564,35.2500688 85.0239802,35.2031976 C84.5123168,34.6615936 84.0027921,34.2522273 83.4959406,33.9752768 C82.966099,33.6860292 82.4391089,33.5407817 81.9146139,33.5407817 C80.9313861,33.5407817 80.1064158,33.9613758 79.4400594,34.8027421 C78.7733465,35.6439302 78.4404356,37.0866035 78.4404356,39.1293362 C78.4404356,40.9756728 78.7872475,42.3304847 79.4808713,43.1935936 C80.1748515,44.0568807 81.0023168,44.4879896 81.9636238,44.4879896 C82.5098614,44.4879896 83.0425545,44.3464847 83.5615248,44.0622273 C84.0573267,43.7906233 84.546,43.389455 85.0270099,42.8587223 C85.0692475,42.811851 85.0938416,42.7487619 85.0938416,42.6856728 M85.1629901,22.8200887 L89.1880396,18.6120094 C89.3432673,18.4498312 89.6170099,18.5596134 89.6170099,18.7841679 L89.6170099,47.6641877 C89.6170099,47.8017718 89.5054455,47.9133362 89.3678614,47.9133362 L85.3428119,47.9133362 C85.2054059,47.9133362 85.0938416,47.8017718 85.0938416,47.6641877 L85.0938416,46.4473164 C85.0938416,46.2314946 84.8352475,46.1160094 84.6782376,46.2641085 C84.0608911,46.8461679 83.4184158,47.2974154 82.7504554,47.6182075 C81.9308317,48.0115342 81.0732475,48.2084649 80.177703,48.2084649 C78.3964158,48.2084649 76.8888713,47.4816926 75.6545347,46.0286827 C74.1683762,44.2588015 73.4257426,41.9262867 73.4257426,39.0307817 C73.4257426,37.5341085 73.6356832,36.1821481 74.0568119,34.9749005 C74.4770495,33.7678312 74.9849703,32.8034946 75.5807525,32.0822471 C76.176,31.361356 76.8644554,30.7905243 77.6454059,30.369752 C78.4267129,29.949158 79.2867921,29.7388609 80.2268911,29.7388609 C81.1445347,29.7388609 82.0072871,29.935257 82.8158614,30.3285837 C83.4665347,30.6450986 84.0849505,31.0927817 84.6718218,31.6707421 C84.8288317,31.825257 85.0938416,31.7152966 85.0938416,31.4950193 L85.0938416,22.9922471 C85.0938416,22.9280887 85.1186139,22.8664253 85.1629901,22.8200887" id="Fill-33" fill="#FFFFFF"></path>
                <path d="M85.0938416,42.6856728 L85.0938416,35.3783857 C85.0938416,35.3138708 85.0683564,35.2500688 85.0239802,35.2031976 C84.5123168,34.6615936 84.0027921,34.2522273 83.4959406,33.9752768 C82.966099,33.6860292 82.4391089,33.5407817 81.9146139,33.5407817 C80.9313861,33.5407817 80.1064158,33.9613758 79.4400594,34.8027421 C78.7733465,35.6439302 78.4404356,37.0866035 78.4404356,39.1293362 C78.4404356,40.9756728 78.7872475,42.3304847 79.4808713,43.1935936 C80.1748515,44.0568807 81.0023168,44.4879896 81.9636238,44.4879896 C82.5098614,44.4879896 83.0425545,44.3464847 83.5615248,44.0622273 C84.0573267,43.7906233 84.546,43.389455 85.0270099,42.8587223 C85.0692475,42.811851 85.0938416,42.7487619 85.0938416,42.6856728 Z M85.1629901,22.8200887 L89.1880396,18.6120094 C89.3432673,18.4498312 89.6170099,18.5596134 89.6170099,18.7841679 L89.6170099,47.6641877 C89.6170099,47.8017718 89.5054455,47.9133362 89.3678614,47.9133362 L85.3428119,47.9133362 C85.2054059,47.9133362 85.0938416,47.8017718 85.0938416,47.6641877 L85.0938416,46.4473164 C85.0938416,46.2314946 84.8352475,46.1160094 84.6782376,46.2641085 C84.0608911,46.8461679 83.4184158,47.2974154 82.7504554,47.6182075 C81.9308317,48.0115342 81.0732475,48.2084649 80.177703,48.2084649 C78.3964158,48.2084649 76.8888713,47.4816926 75.6545347,46.0286827 C74.1683762,44.2588015 73.4257426,41.9262867 73.4257426,39.0307817 C73.4257426,37.5341085 73.6356832,36.1821481 74.0568119,34.9749005 C74.4770495,33.7678312 74.9849703,32.8034946 75.5807525,32.0822471 C76.176,31.361356 76.8644554,30.7905243 77.6454059,30.369752 C78.4267129,29.949158 79.2867921,29.7388609 80.2268911,29.7388609 C81.1445347,29.7388609 82.0072871,29.935257 82.8158614,30.3285837 C83.4665347,30.6450986 84.0849505,31.0927817 84.6718218,31.6707421 C84.8288317,31.825257 85.0938416,31.7152966 85.0938416,31.4950193 L85.0938416,22.9922471 C85.0938416,22.9280887 85.1186139,22.8664253 85.1629901,22.8200887 Z" id="Stroke-35"></path>
                <path d="M99.9106931,32.5669901 C98.883802,32.5669901 98.0752277,32.9658416 97.485505,33.7630099 C96.6988515,34.8230495 96.3055248,36.516297 96.3055248,38.8432871 C96.3055248,40.9738812 96.6550099,42.4928317 97.3543366,43.3992475 C98.0534851,44.3063762 98.8946733,44.7594059 99.877901,44.7594059 C100.566535,44.7594059 101.194574,44.5382376 101.762733,44.0955446 C102.330535,43.6532079 102.740257,43.0226733 102.991723,42.2032277 C103.352436,41.0558614 103.532436,39.7611089 103.532436,38.3187921 C103.532436,37.2375446 103.382198,36.2295446 103.082079,35.2953267 C102.781426,34.3612871 102.346931,33.6728317 101.77895,33.2303168 C101.21097,32.7881584 100.588277,32.5669901 99.9106931,32.5669901 M99.4517822,29.5841584 C102.106871,29.5841584 104.19095,30.3763366 105.704198,31.9603366 C107.217267,33.5446931 107.973802,35.7954059 107.973802,38.7121188 C107.973802,41.6514653 107.208891,43.9458416 105.679426,45.5952475 C104.149604,47.2451881 102.237683,48.0701584 99.9436634,48.0701584 C97.7478416,48.0701584 95.8384158,47.2886733 94.2157426,45.7267723 C92.593604,44.1641584 91.7821782,41.8369901 91.7821782,38.7450891 C91.7821782,35.8173267 92.5087723,33.5582376 93.9617822,31.9687129 C95.4147921,30.3788317 97.2449109,29.5841584 99.4517822,29.5841584" id="Fill-37" fill="#FFFFFF"></path>
                <path d="M99.9106931,32.5669901 C98.883802,32.5669901 98.0752277,32.9658416 97.485505,33.7630099 C96.6988515,34.8230495 96.3055248,36.516297 96.3055248,38.8432871 C96.3055248,40.9738812 96.6550099,42.4928317 97.3543366,43.3992475 C98.0534851,44.3063762 98.8946733,44.7594059 99.877901,44.7594059 C100.566535,44.7594059 101.194574,44.5382376 101.762733,44.0955446 C102.330535,43.6532079 102.740257,43.0226733 102.991723,42.2032277 C103.352436,41.0558614 103.532436,39.7611089 103.532436,38.3187921 C103.532436,37.2375446 103.382198,36.2295446 103.082079,35.2953267 C102.781426,34.3612871 102.346931,33.6728317 101.77895,33.2303168 C101.21097,32.7881584 100.588277,32.5669901 99.9106931,32.5669901 Z M99.4517822,29.5841584 C102.106871,29.5841584 104.19095,30.3763366 105.704198,31.9603366 C107.217267,33.5446931 107.973802,35.7954059 107.973802,38.7121188 C107.973802,41.6514653 107.208891,43.9458416 105.679426,45.5952475 C104.149604,47.2451881 102.237683,48.0701584 99.9436634,48.0701584 C97.7478416,48.0701584 95.8384158,47.2886733 94.2157426,45.7267723 C92.593604,44.1641584 91.7821782,41.8369901 91.7821782,38.7450891 C91.7821782,35.8173267 92.5087723,33.5582376 93.9617822,31.9687129 C95.4147921,30.3788317 97.2449109,29.5841584 99.4517822,29.5841584 Z" id="Stroke-39"></path>
            </g>
        </g>
    </g>
</svg>